<svg width="45" height="45" viewBox="0 0 45 45" fill="none" xmlns="http://www.w3.org/2000/svg">
<path d="M22.4819 0C10.0654 0 0 10.0733 0 22.4996C0 34.9258 10.0654 44.9991 22.4819 44.9991C34.8984 44.9991 44.9638 34.9258 44.9638 22.4996C44.9638 10.0733 34.8992 0 22.4819 0ZM28.2765 15.3383C28.2757 15.7419 28.1299 15.893 27.7222 15.8998C27.0843 15.9109 26.4456 15.9143 25.8077 15.9109C24.9012 15.9058 24.4518 16.1285 24.4655 17.1996C24.474 17.8824 24.4697 18.5652 24.4723 19.2471C24.4723 19.2991 24.4817 19.3503 24.4893 19.4331C24.5857 19.4331 24.6795 19.4331 24.7725 19.4331C25.6994 19.4331 26.6264 19.4314 27.5534 19.4331C28.019 19.434 28.1699 19.5825 28.1708 20.0425C28.1734 21.1187 28.1725 22.1957 28.1708 23.2719C28.1708 23.7243 28.0574 23.8421 27.5935 23.8455C26.658 23.8523 25.7225 23.8489 24.787 23.8497C24.6931 23.8497 24.5993 23.8497 24.4757 23.8497V24.2159C24.4757 26.9384 24.4757 29.66 24.4757 32.3817C24.4757 33.1541 24.387 33.242 23.6229 33.242C22.6175 33.242 21.612 33.242 20.6058 33.242C20.0523 33.242 19.9244 33.1182 19.9244 32.5669C19.9227 29.7923 19.9244 27.0178 19.9244 24.2432V23.9018C19.8169 23.8967 19.7257 23.8873 19.6336 23.8873C18.8814 23.8864 18.1293 23.8873 17.378 23.8864C16.8262 23.8864 16.6889 23.7524 16.6881 23.2114C16.6864 22.1872 16.6864 21.1631 16.6881 20.1389C16.6889 19.62 16.8262 19.4852 17.3405 19.4852C18.1881 19.4852 19.0358 19.4852 19.9244 19.4852C19.9244 18.8929 19.9252 18.3347 19.9244 17.7766C19.9227 16.9462 19.9261 16.1192 20.141 15.3041C20.6356 13.4265 22.1723 12.0106 24.1039 11.834C25.3353 11.7213 26.5821 11.7657 27.822 11.7546C28.1409 11.752 28.274 11.9108 28.2757 12.2385C28.2808 13.2712 28.2817 14.3039 28.2782 15.3365L28.2765 15.3383Z" fill="white"/>
</svg>
