<svg width="45" height="45" viewBox="0 0 45 45" fill="none" xmlns="http://www.w3.org/2000/svg">
<path d="M22.4819 0C10.0654 0 0 10.0733 0 22.4996C0 34.9258 10.0654 44.9991 22.4819 44.9991C34.8984 44.9991 44.9638 34.9258 44.9638 22.4996C44.9638 10.0733 34.8984 0 22.4819 0ZM31.1299 26.0525C31.1189 26.1131 31.1052 26.1728 31.0967 26.2334C31.0498 26.5961 31.0336 26.9648 30.9543 27.3199C30.5134 29.2965 29.3016 30.5169 27.324 30.9633C26.4772 31.1544 25.6116 31.1493 24.7511 31.1579C23.246 31.1732 21.7408 31.1732 20.2357 31.1579C19.3692 31.1493 18.4985 31.1544 17.6466 30.9581C15.6937 30.5092 14.4879 29.3059 14.0428 27.348C13.8551 26.5228 13.8534 25.6804 13.8466 24.8414C13.8338 23.2848 13.8244 21.7272 13.8509 20.1705C13.8637 19.3776 13.908 18.5797 14.024 17.7962C14.186 16.7055 14.6934 15.7752 15.5419 15.0464C16.422 14.2911 17.4701 13.9855 18.5992 13.8976C18.9633 13.8695 19.3292 13.8515 19.6941 13.8285H25.2423C25.3762 13.8396 25.511 13.8507 25.6448 13.8626C26.148 13.9079 26.6563 13.9241 27.1543 14.0026C29.2461 14.3312 30.7684 15.9203 31.0276 18.0215C31.0609 18.2946 31.095 18.5669 31.1291 18.84V26.0516L31.1299 26.0525Z" fill="white"/>
<path d="M29.4278 18.059C29.2163 16.7788 28.4556 15.9493 27.1824 15.6198C26.4601 15.4329 25.7191 15.4355 24.9831 15.4253C23.6417 15.4073 22.2994 15.4133 20.958 15.4176C20.0114 15.4201 19.0614 15.392 18.125 15.5593C16.8237 15.7914 15.9632 16.5262 15.623 17.8303C15.4618 18.4482 15.4422 19.0806 15.4371 19.7096C15.4226 21.5718 15.4217 23.4341 15.4371 25.2954C15.4422 25.8399 15.4891 26.3887 15.5718 26.9272C15.7074 27.8012 16.1312 28.5155 16.8902 29.0003C17.4658 29.3681 18.1165 29.5098 18.7851 29.5354C20.0242 29.5832 21.2641 29.6003 22.5041 29.631C22.5041 29.6207 22.5041 29.6105 22.5041 29.6003C23.13 29.6003 23.7559 29.6131 24.381 29.5968C25.2475 29.5755 26.1199 29.6114 26.9752 29.4372C28.1742 29.194 28.9852 28.5044 29.3493 27.3173C29.5301 26.7275 29.5608 26.1182 29.5668 25.5114C29.5847 23.7567 29.5941 22.002 29.577 20.2473C29.5702 19.5167 29.5446 18.7768 29.4261 18.0582L29.4278 18.059ZM22.4503 26.9597C19.9943 26.9221 18.0065 24.8969 18.044 22.4569C18.0824 19.9639 20.0839 18.0206 22.5339 18.0428C25.007 18.065 26.9905 20.0936 26.9581 22.5234C26.9249 25.0061 24.9021 26.9964 22.4503 26.9597ZM27.1176 18.9082C26.5386 18.9073 26.0866 18.4473 26.0883 17.861C26.09 17.2849 26.5633 16.8164 27.1347 16.8249C27.7111 16.8343 28.1776 17.308 28.1699 17.8772C28.1623 18.4559 27.7001 18.9082 27.1176 18.9073V18.9082Z" fill="white"/>
<path d="M22.4938 19.6176C20.8957 19.6193 19.6182 20.9097 19.6225 22.5184C19.6276 24.1101 20.9153 25.3835 22.516 25.3792C24.1064 25.3749 25.3822 24.0879 25.3805 22.4877C25.3788 20.8977 24.0902 19.6158 22.4938 19.6167V19.6176Z" fill="white"/>
</svg>
